<?xml version="1.0" encoding="utf-8"?>
<!-- Generator: Adobe Illustrator 17.0.0, SVG Export Plug-In . SVG Version: 6.00 Build 0)  -->
<!DOCTYPE svg PUBLIC "-//W3C//DTD SVG 1.1//EN" "http://www.w3.org/Graphics/SVG/1.1/DTD/svg11.dtd">
<svg version="1.1" id="Layer_1" xmlns="http://www.w3.org/2000/svg" xmlns:xlink="http://www.w3.org/1999/xlink" x="0px" y="0px"
	 width="429.774px" height="353.285px" viewBox="0 0 429.774 353.285" enable-background="new 0 0 429.774 353.285"
	 xml:space="preserve">
<g>
	<path fill="#FFFFFF" d="M429.774,231.665c-2.13,6.17-5.676,10.849-12.267,12.1c-1.933,0.367-3.941,0.313-6.174,0.47
		c0,2.657,0,5.303,0,8.198c-13.544,0-26.829,0-40.46,0c0-2.748,0-5.389,0-8.369c-1.505,0-2.669,0-3.833,0
		c-53.863,0-107.725,0-161.588,0c-11.014,0-16.891-6.144-16.892-17.655c-0.001-31.124-0.003-62.248,0.001-93.372
		c0.002-10.365,6.202-16.774,16.228-16.774c68.725-0.003,137.45,0.094,206.174-0.114c9.324-0.028,15.757,3.134,18.81,12.511
		C429.774,162.995,429.774,197.33,429.774,231.665z M393.707,186.907c0-5.342,0-10.239,0-15.476c-7.844,0-15.461,0-23.01,0
		c0-3.898,0-7.444,0-11.196c8.589,0,16.93,0,25.342,0c0-5.203,0-10.185,0-15.15c-13.73,0-27.233,0-40.856,0
		c0,23.113,0,46.003,0,68.999c13.947,0,27.73,0,41.497,0c0-5.131,0-10.042,0-15.304c-8.789,0-17.402,0-26.022,0
		c0-4.121,0-7.881,0-11.872C378.408,186.907,385.953,186.907,393.707,186.907z M349.669,144.863c-4.887,0-9.373,0.125-13.848-0.054
		c-2.174-0.087-3.082,0.644-3.693,2.832c-4.086,14.639-8.318,29.234-12.511,43.841c-0.287,1.001-0.641,1.982-1.212,3.733
		c-0.576-1.872-0.889-2.836-1.169-3.811c-4.19-14.607-8.35-29.223-12.619-43.805c-0.304-1.039-1.376-2.572-2.148-2.608
		c-4.959-0.237-9.933-0.121-14.948-0.121c0,0.529-0.074,0.853,0.011,1.125c6.872,22.153,13.737,44.308,20.713,66.425
		c0.258,0.817,1.594,1.767,2.455,1.797c4.981,0.171,9.972-0.011,14.955,0.131c1.942,0.055,2.746-0.62,3.321-2.543
		c2.913-9.732,5.999-19.408,9.005-29.11C341.834,170.259,345.669,157.814,349.669,144.863z M236.285,198.837
		c0-18.17,0-35.89,0-53.774c-5.19,0-10.103,0-15.117,0c0,23.155,0,46.109,0,69.086c12.945,0,25.662,0,38.453,0
		c0-5.132,0-10.108,0-15.311C251.848,198.837,244.307,198.837,236.285,198.837z M266.044,145.05c0,23.137,0,46.087,0,69.039
		c5.137,0,10.061,0,14.944,0c0-23.161,0-46.109,0-69.039C275.868,145.05,271.025,145.05,266.044,145.05z"/>
	<path fill="#FFFFFF" d="M263.371,353.285c0.026-29.448,0.051-58.896,0.077-88.344c0.001-1.226,0-2.453,0-3.931
		c7.2,0,14.211,0,21.628,0c0,17.012,0,34.076,0,51.14c0.245,0.085,0.49,0.171,0.736,0.256c2.213-3.193,4.443-6.373,6.637-9.58
		c9.041-13.213,18.101-26.414,27.073-39.677c1.205-1.782,2.443-2.566,4.618-2.457c4.355,0.217,8.727,0.064,13.454,0.064
		c0,31.015,0,61.771,0,92.528c-7.183,0-14.366,0-21.549,0c0-15.524,0-31.047,0-46.571c-0.282-0.11-0.563-0.219-0.845-0.329
		c-0.185,0.36-0.334,0.746-0.559,1.076c-10.135,14.816-20.278,29.625-30.404,44.447c-0.266,0.39-0.347,0.916-0.515,1.378
		C276.939,353.285,270.155,353.285,263.371,353.285z"/>
	<path fill="#FFFFFF" d="M353.755,353.285c0.026-29.345,0.051-58.689,0.077-88.034c0.001-1.33,0-2.659,0-4.241
		c7.201,0,14.212,0,21.629,0c0,17.012,0,34.076,0,51.14c0.245,0.085,0.49,0.171,0.736,0.256c2.213-3.193,4.443-6.373,6.637-9.58
		c9.041-13.213,18.101-26.414,27.073-39.677c1.205-1.782,2.443-2.566,4.618-2.457c4.355,0.217,8.728,0.064,13.454,0.064
		c0,31.015,0,61.771,0,92.528c-7.183,0-14.366,0-21.549,0c0-15.524,0-31.047,0-46.571c-0.282-0.11-0.563-0.219-0.845-0.329
		c-0.185,0.36-0.334,0.746-0.559,1.076c-10.135,14.816-20.278,29.625-30.404,44.447c-0.266,0.39-0.348,0.916-0.515,1.378
		C367.323,353.285,360.539,353.285,353.755,353.285z"/>
	<path fill="#FFFFFF" d="M5.986,353.285c0.026-29.459,0.051-58.918,0.077-88.377c0.001-1.224,0-2.448,0-3.91
		c7.227,0,14.241,0,21.63,0c0,25.04,0,50.089,0,75.374c9.467,0,18.566,0,27.986,0c0-25.068,0-50.126,0-75.398
		c7.335,0,14.351,0,21.733,0c0,25.106,0,50.16,0,75.593c3.475,0,6.6,0,9.979,0c0,5.823,0,11.27,0,16.718
		C60.256,353.285,33.121,353.285,5.986,353.285z"/>
	<path fill="#FFFFFF" d="M178.374,353.285c0.026-29.47,0.051-58.94,0.077-88.41c0.001-1.222,0-2.444,0-3.89
		c7.253,0,14.271,0,21.725,0c0,13.577,0,27.129,0,40.681c0.22,0.053,0.439,0.106,0.659,0.159c4.563-6.723,9.128-13.445,13.69-20.17
		c4.24-6.25,8.4-12.562,12.787-18.699c0.786-1.1,2.489-2.064,3.795-2.101c7.229-0.201,14.466-0.096,22.259-0.096
		c-5.177,7.788-10.012,15.071-14.859,22.346c-4.979,7.475-9.898,14.995-15.003,22.377c-1.365,1.974-1.483,3.306-0.096,5.38
		c9.414,14.082,18.678,28.27,27.991,42.424c-8.18,0-16.361,0-24.541,0c-8.671-12.963-17.341-25.925-26.012-38.888
		c-0.637,9.428-0.611,18.6-0.65,27.772c-0.016,3.706-0.178,7.411-0.273,11.116C192.74,353.285,185.557,353.285,178.374,353.285z"/>
	<path fill="#FFFFFF" d="M98.764,353.285c0.026-29.463,0.051-58.925,0.077-88.388c0.001-1.223,0-2.447,0-3.904
		c7.235,0,14.251,0,21.652,0c0,9.956,0,19.917,0,30.253c5.223,0,10.072-0.058,14.92,0.011c14.948,0.213,27.434,10.386,31.211,25.37
		c3.188,12.647-1.3,26.387-11.217,34.359c-0.935,0.752-1.849,1.532-2.772,2.299C134.678,353.285,116.721,353.285,98.764,353.285z
		 M120.73,337.225c4.877,0,9.446,0.076,14.012-0.019c6.146-0.127,10.71-4.799,11.229-11.335c0.509-6.402-3.297-12.499-9.172-13.231
		c-5.247-0.654-10.629-0.137-16.069-0.137C120.73,320.758,120.73,328.771,120.73,337.225z"/>
	<path fill="#FFFFFF" d="M89.511,0.08c6.964,0,13.673-0.181,20.438,0c0,0,17.351,28.167,24.763,40.76
		c0.499,0.848,1.055,1.659,1.815,2.848c2.513-4.253,4.838-8.175,7.15-12.106c5.594-9.512,12.863-21.896,18.381-31.455
		c0,0,14.958-0.047,21.438-0.047c0,32.517-0.023,65.489-0.023,97.971c-7.069,0-14.092,0-21.546,0c0-18.362,0-36.663,0-54.963
		c-0.214-0.043-0.429-0.087-0.643-0.13c-4.6,7.811-9.202,15.619-13.798,23.432c-2.849,4.844-5.679,9.701-8.535,14.541
		c-1.763,2.988-3.193,2.999-4.933,0.042c-6.945-11.802-13.88-23.61-20.823-35.413c-0.505-0.859-1.048-1.694-2.051-3.309
		c0,19.095,0,37.322,0,55.77c-7.353,0-14.385,0-21.648,0C89.494,65.798,89.511,32.821,89.511,0.08z"/>
	<path fill="#FFFFFF" d="M146.498,176.869c-6.704,9.776-34.43,51.56-34.43,51.56s-12.345,0.122-17.172,0.122
		c0-32.421,0-64.705,0-97.235c6.972,0,13.986,0,21.414,0c0,17.042,0,34.111,0,51.18c0.237,0.077,26.157-36.877,36.076-51.478
		c0,0,11.547,0.053,16.25,0.053c0,32.541,0,64.76,0,97.23c-6.962,0-13.977,0-21.328,0c0-16.997,0-34.08,0-51.163
		C147.038,177.048,146.768,176.959,146.498,176.869z"/>
	<path fill="#FFFFFF" d="M78.726,228.423c-7.207,0-14.161,0-21.488,0c0-12.769,0-25.416,0-38.235c-9.903,0-19.432,0-29.323,0
		c0,12.685,0,25.338,0,38.175c-7.389,0-14.421,0-21.653,0c0-32.324,0-64.607,0-97.091c7.099,0,14.117,0,21.557,0
		c0,12.316,0,24.545,0,36.898c9.868,0,19.316,0,29.19,0c0-12.24,0-24.459,0-36.885c7.451,0,14.479,0,21.717,0
		C78.726,163.594,78.726,195.878,78.726,228.423z"/>
	<path fill="#FFFFFF" d="M264.17,77.518c0.143-0.067,0.228-0.143,0.307-0.138c10.469,0.775,14.944-3.43,15.03-14.676
		c0.148-19.327,0.08-38.655,0.103-57.982c0.001-1.213,0.011-3.276,0.011-4.641c21.824,0,43.318,0.016,64.984,0.016
		c0,32.377-0.018,65.502-0.018,97.97c-7.079,0-14.095,0-21.37,0c0-25.201,0-50.277,0-75.594c-7.379,0-14.501,0-21.921,0
		c-0.05,1.139-0.137,2.229-0.14,3.32c-0.036,12.816,0.311,25.649-0.254,38.439c-0.254,5.749-1.598,11.723-3.72,17.051
		c-4.626,11.616-13.893,16.72-25.716,17.251c-2.365,0.106-4.739,0.015-7.296,0.015C264.17,91.231,264.17,84.361,264.17,77.518z"/>
	<path fill="#FFFFFF" d="M257.838,22.161c-12.134,0-24.159,0-36.431,0c0,5.407,0,10.506,0,15.949c10.964,0,21.882,0,33.033,0
		c0,7.294,0,14.251,0,21.53c-11.058,0-21.989,0-33.099,0c0,5.754,0,11.188,0,16.895c12.353,0,24.582,0,37.059,0
		c0,7.312,0,14.357,0,21.557c-19.576,0-39.085,0-58.797,0c0-32.368-0.015-65.536-0.015-98.017c19.411,0,38.772,0,58.292,0
		C257.881,7.062,257.838,14.89,257.838,22.161z"/>
	<path fill="#FFFFFF" d="M360.667,0.096c7.152,0,14.075,0,21.406,0c0,10.08,0.009,20.838,0.009,31.156
		c4.925,0,9.478-0.015,14.031,0.003c16.759,0.067,29.703,11.336,32.672,28.432c2.988,17.204-8.743,34.726-25.506,37.858
		c-3.206,0.599-6.534,0.646-9.808,0.67c-10.864,0.078-21.728,0.03-32.823,0.03C360.648,65.798,360.667,32.712,360.667,0.096z
		 M382.384,52.355c0,8.468,0,16.562,0,24.843c4.973,0,9.743,0.128,14.504-0.032c6.058-0.203,10.584-5.493,10.669-12.192
		c0.085-6.633-4.344-12.232-10.328-12.564C392.374,52.14,387.494,52.355,382.384,52.355z"/>
	<path fill="#FFFFFF" d="M26.74,49.424c0.448-0.808-0.019-2.523-0.569-3.512C18.47,32.061,10.678,18.263,2.913,4.448
		C2.325,3.402,1.69,1.663,0.855,0.096c6.065,0,26.109,0.016,26.109,0.016c3.004,6.463,9.188,19.574,12.876,26.129
		c4.453-7.908,10.49-18.549,14.639-26.176c0,0,16.801,0.031,24.438,0.031c-0.764,1.439-1.459,3.151-2.031,4.168
		c-7.618,13.548-15.177,27.133-22.926,40.6c-1.397,2.428-1.457,4.165-0.051,6.62c8.329,14.547,16.48,29.203,24.686,43.826
		c0.442,0.788,0.831,1.609,1.51,2.933c-4.581,0-24.703,0.29-24.703,0.29S43.291,76.442,39.867,70.361
		c-1.86,3.269-18.372,27.923-18.372,27.923L0,98.255C0,97.842,17.912,65.338,26.74,49.424z"/>
</g>
</svg>
